<?plantuml 1.2026.2?><svg xmlns="http://www.w3.org/2000/svg" xmlns:xlink="http://www.w3.org/1999/xlink" contentStyleType="text/css" data-diagram-type="SEQUENCE" height="0px" preserveAspectRatio="none" style="width:99px;height:211px;background:#FFFFFF;" version="1.1" viewBox="0 0 99 211" width="0px" zoomAndPan="magnify"><defs/><g><g class="participant-lifeline" data-entity-uid="part1" data-qualified-name="Juan" id="part1-lifeline"><g><title>Juan</title><rect fill="#000000" fill-opacity="0.00000" height="0" width="0" x="0" y="0"/><line x1="0" x2="0" y1="0" y2="0"/></g></g><g class="participant-lifeline" data-entity-uid="part2" data-qualified-name="Pedro" id="part2-lifeline"><g><title>Pedro</title><rect fill="#000000" fill-opacity="0.00000" height="0" width="0" x="0" y="0"/><line x1="0" x2="0" y1="0" y2="0"/></g></g><g class="participant participant-head" data-entity-uid="part1" data-qualified-name="Juan" id="part1-head"><text fill="#000000" font-family="sans-serif" font-size="0" lengthAdjust="spacing" textLength="0" x="0" y="0">Juan</text><ellipse cx="0" cy="0" fill="#E2E2F0" rx="0" ry="0"/><path d="M0,0 L0,0 M0,0 L0,0 M0,0 L0,0 M0,0 L0,0" fill="none"/></g><g class="participant participant-tail" data-entity-uid="part1" data-qualified-name="Juan" id="part1-tail"><text fill="#000000" font-family="sans-serif" font-size="0" lengthAdjust="spacing" textLength="0" x="0" y="0">Juan</text><ellipse cx="0" cy="0" fill="#E2E2F0" rx="0" ry="0"/><path d="M0,0 L0,0 M0,0 L0,0 M0,0 L0,0 M0,0 L0,0" fill="none"/></g><g class="participant participant-head" data-entity-uid="part2" data-qualified-name="Pedro" id="part2-head"><text fill="#000000" font-family="sans-serif" font-size="0" lengthAdjust="spacing" textLength="0" x="0" y="0">Pedro</text><ellipse cx="0" cy="0" fill="#E2E2F0" rx="0" ry="0"/><path d="M0,0 L0,0 M0,0 L0,0 M0,0 L0,0 M0,0 L0,0" fill="none"/></g><g class="participant participant-tail" data-entity-uid="part2" data-qualified-name="Pedro" id="part2-tail"><text fill="#000000" font-family="sans-serif" font-size="0" lengthAdjust="spacing" textLength="0" x="0" y="0">Pedro</text><ellipse cx="0" cy="0" fill="#E2E2F0" rx="0" ry="0"/><path d="M0,0 L0,0 M0,0 L0,0 M0,0 L0,0 M0,0 L0,0" fill="none"/></g><g class="message" data-entity-1="part1" data-entity-2="part2" id="msg1"><polygon fill="#181818" points="0,0,0,0,0,0,0,0"/><line x1="0" x2="0" y1="0" y2="0"/><text fill="#000000" font-family="sans-serif" font-size="0" lengthAdjust="spacing" textLength="0" x="0" y="0">hola</text></g><?plantuml-src IqmkoIzIy2fDpEDA13C3KbEAyhb00WgwTX2UWfL2HdvE8W00?></g></svg>